<svg preserveAspectRatio="xMidYMid meet" data-bbox="0 0 152.407 108" viewBox="0 0 152.407 108" height="144" width="203.209" xmlns="http://www.w3.org/2000/svg" data-type="ugc" role="img" aria-labelledby="svgcid-bs9jdri1jfsj"><title id="svgcid-bs9jdri1jfsj">Mastercad logo</title>
    <g>
        <path fill="none" d="M152.407 0v108H0V0h152.407z"></path>
        <path fill="#ff5f00" d="M91.912 25.697v56.606h-31.5V25.697h31.5z"></path>
        <path d="M62.412 54a35.938 35.938 0 0 1 13.75-28.303 36 36 0 1 0 0 56.606A35.938 35.938 0 0 1 62.412 54Z" fill="#eb001b"></path>
        <path d="M134.407 54a35.999 35.999 0 0 1-58.245 28.303 36.005 36.005 0 0 0 0-56.606A35.999 35.999 0 0 1 134.407 54Z" fill="#f79e1b"></path>
        <path d="M130.973 76.308v-1.16h.467v-.235h-1.19v.236h.468v1.159Zm2.31 0V74.91h-.364l-.42.962-.42-.962h-.365v1.398h.258v-1.054l.393.908h.267l.394-.91v1.056Z" fill="#f79e1b"></path>
    </g>
</svg>