<svg preserveAspectRatio="xMidYMid meet" data-bbox="31 13 352.001 96.017" xmlns="http://www.w3.org/2000/svg" viewBox="0 0 400 120" height="120" width="400" data-type="ugc" role="img" aria-labelledby="svgcid-pdolvn-ku9tvz"><title id="svgcid-pdolvn-ku9tvz">MIR logo</title>
    <g>
        <defs>
            <linearGradient id="svgcid-um9f3b-see1yv" y2="62.904%" x2="0%" y1="62.904%" x1="100%">
                <stop offset="0%" stop-color="#1F5CD7"></stop>
                <stop offset="100%" stop-color="#02AEFF"></stop>
            </linearGradient>
        </defs>
        <g fill-rule="evenodd">
            <path fill="#0F754E" d="M63.55 13.016c3.145-.018 12.491-.86 16.45 12.5 2.667 9 6.915 23.743 12.744 44.228h2.373c6.253-21.597 10.546-36.34 12.883-44.227 4-13.5 14-12.5 18-12.5h30.861v96h-31.454V52.441h-2.11l-17.534 56.575H82.098L64.564 52.4h-2.11v56.616H31v-96Zm138.479 0v56.617h2.509l21.329-46.555c4.14-9.265 12.963-10.061 12.963-10.061h30.439v96h-32.111V52.4h-2.51l-20.91 46.556c-4.14 9.222-13.383 10.06-13.383 10.06h-30.439v-96h32.112Zm178.232 45.62c-4.48 12.693-18.546 21.784-34.12 21.784h-33.674v28.597H281.93v-50.38Z"></path>
            <path fill="url(#svgcid-um9f3b-see1yv)" d="M316.614.017H249.33c1.602 21.373 20.007 39.67 39.061 39.67h62.992c3.635-17.764-8.879-39.67-34.768-39.67Z" transform="translate(31 13)"></path>
        </g>
    </g>
</svg>