<?xml version="1.0" encoding="UTF-8"?>
<svg data-bbox="0.461 0.01 511.01 511.926" viewBox="0 0 511.936 511.936" xmlns="http://www.w3.org/2000/svg" data-type="shape">
    <g>
        <path d="M281.569 245.935a7.67 7.67 0 0 0-2.804-1.028l-21.76-3.84c-4.025-.712-7.979 2.058-8.689 6.083s2.057 7.979 6.082 8.689l20.534 3.624 68.288 41.96c3.334 2.049 7.906 1.054 10.119-2.166 2.375-3.455 1.303-8.421-2.266-10.615l-69.504-42.707z"/>
        <path d="m498.848 290.687-30.405 28.416-139.321-137.464L509.098 12.972a7.5 7.5 0 0 0-10.257-10.945l-185.667 174c-3.062 2.869-3.126 7.864-.139 10.812l12.323 12.158-3.934 3.474-82.371-7.093a7.517 7.517 0 0 0-3.752.647l-65.265 29.724a7.682 7.682 0 0 0-.577-.132l-37.541-6.625 3.036-7.76a7.5 7.5 0 0 0-4.199-9.696l-120-48a7.497 7.497 0 0 0-9.749 4.178 7.5 7.5 0 0 0 4.178 9.749l113.089 45.236L51.63 383.007 10.473 368.43a7.5 7.5 0 1 0-5.008 14.14l48 17c3.768 1.335 8.033-.618 9.488-4.337l11.138-28.463 29.183 16.354-3.219 5.217c-9.12 14.781-4.515 34.227 10.267 43.348 7.817 4.823 17.521 5.967 26.256 3.14 1.401 9.103 6.75 17.226 14.594 22.065 7.817 4.823 17.52 5.967 26.256 3.14 1.402 9.103 6.749 17.225 14.593 22.065 7.841 4.838 17.494 5.977 26.258 3.149 1.404 9.099 6.75 17.218 14.592 22.056 11.398 7.032 26.484 5.981 36.757-2.63a31.663 31.663 0 0 0 6.592-7.637l5.116-8.291 4.212 2.588c11.413 7.012 26.495 5.932 36.752-2.698a31.678 31.678 0 0 0 6.578-7.649 31.313 31.313 0 0 0 4.586-18.379 31.1 31.1 0 0 0 7.279.881c10.893 0 21.196-5.744 26.897-15.021 3.434-5.589 5.002-11.961 4.604-18.376 2.376.57 4.808.876 7.26.876 10.893 0 21.197-5.744 26.897-15.021 3.437-5.593 5.004-11.97 4.603-18.389 2.402.572 4.84.871 7.268.871 10.593 0 20.95-5.333 26.891-15.001 9.093-14.799 4.451-34.236-10.348-43.329l-5.139-3.158 17.237-18.01 16.123 15.908c2.828 2.789 7.488 2.851 10.389.141l35.667-33.333a7.501 7.501 0 0 0-10.244-10.96zM118.199 418.923c-7.743-4.777-10.155-14.963-5.378-22.706l42.009-68.083c4.688-7.599 14.749-10.084 22.431-5.545 7.949 4.699 10.143 15.597 5.37 23.333l-41.725 67.623c-4.778 7.742-14.964 10.154-22.707 5.378zm40.85 25.205c-7.649-4.72-10.106-15.045-5.378-22.706l33.606-54.466c4.688-7.598 14.749-10.084 22.431-5.545 7.949 4.699 10.143 15.597 5.369 23.333l-33.323 54.006c-4.776 7.742-14.963 10.155-22.705 5.378zm53.317 27.219c-4.29 1.017-8.717.3-12.467-2.014-7.648-4.72-10.105-15.046-5.377-22.706l25.205-40.85c4.688-7.599 14.75-10.084 22.431-5.545 7.949 4.699 10.143 15.597 5.37 23.333l-24.921 40.39a16.402 16.402 0 0 1-10.241 7.392zm51.089 17.814c-4.72 7.649-15.045 10.104-22.707 5.377-7.648-4.719-10.104-15.046-5.377-22.706l16.803-27.233c4.688-7.597 14.75-10.086 22.431-5.544 7.949 4.698 10.143 15.597 5.37 23.333l-16.52 26.773zm153.147-160.254-37.177-22.844c-3.448-2.119-8.198-.984-10.316 2.464-2.119 3.448-.984 8.198 2.464 10.316l55.39 34.035c7.751 4.763 10.183 14.944 5.42 22.696-4.763 7.751-14.945 10.183-22.697 5.42l-59.406-36.503a7.5 7.5 0 0 0-7.852 12.78l45.774 28.126c7.658 4.705 10.133 15.027 5.42 22.696-4.705 7.658-15.027 10.132-22.696 5.42l-41.483-25.49a7.5 7.5 0 0 0-7.852 12.78l27.851 17.113c7.657 4.706 10.133 15.026 5.42 22.696-4.705 7.657-15.027 10.133-22.696 5.42 0 0-24.493-15.035-24.722-15.145a7.5 7.5 0 0 0-7.18 13.147l10.418 6.401c7.751 4.763 10.182 14.944 5.419 22.696-4.705 7.658-15.027 10.132-22.696 5.42l-4.188-2.574 3.527-5.716c4.508-7.307 5.907-16.306 3.837-24.689-2.042-8.273-7.135-15.174-14.339-19.433-5.621-3.322-11.91-4.667-18.033-4.254 1.15-4.939 1.156-10.145-.076-15.135-2.042-8.273-7.135-15.174-14.339-19.433-5.621-3.323-11.91-4.668-18.033-4.255 3.093-13.286-2.601-27.582-14.415-34.567-5.621-3.322-11.91-4.667-18.033-4.255 3.093-13.286-2.601-27.582-14.415-34.567-14.667-8.67-33.88-3.922-42.829 10.581l-30.906 50.09-31.553-17.677 46.732-119.427 25.445 4.49c-7.237 8.989-9.272 21.644-4.172 32.844 5.277 11.587 16.742 18.443 28.714 18.442 4.36 0 8.789-.91 13.009-2.832l43.923-20.005c3.72-1.694 5.411-6.214 3.717-9.934-1.694-3.719-6.214-5.412-9.934-3.717l-43.923 20.004c-8.278 3.772-18.084.103-21.855-8.177-3.771-8.28-.103-18.084 8.177-21.855l70.285-32.011 83.608 7.2a7.503 7.503 0 0 0 5.607-1.849l7.117-6.284 100.173 98.837-19.631 20.514z"/>
    </g>
</svg>
