<svg preserveAspectRatio="xMidYMid meet" data-bbox="0 0.5 110.352 11" xmlns="http://www.w3.org/2000/svg" width="111" height="12" viewBox="0 0 111 12" data-type="ugc" role="img" aria-labelledby="svgcid-mebdsi-6174a3"><title id="svgcid-mebdsi-6174a3">Tinkoff Pay log</title>
    <g>
        <path d="M7.268 10.87V3.747h4.205V1.153H0v2.593h4.206v7.124Zm8.493-9.717H12.7v9.717h3.062zm2.241 0v9.717h2.818V5.502l5.246 5.369h2.614V1.152h-2.818V6.48l-5.124-5.328Zm16.696 6.043 3.532 3.674h3.94l-4.92-5.062 4.736-4.655h-3.715l-3.573 3.655h-.816V1.153h-2.96v9.718h2.96V7.196ZM48.261.887c-3.98 0-6.37 2.246-6.37 5.146 0 2.898 2.39 5.144 6.37 5.144 3.96 0 6.35-2.246 6.35-5.144 0-2.9-2.39-5.146-6.35-5.146zm0 7.922c-1.98 0-3.246-1.185-3.246-2.776 0-1.593 1.266-2.757 3.246-2.757 1.96 0 3.246 1.164 3.246 2.757 0 1.591-1.286 2.776-3.246 2.776zm17.576-7.656h-9.82v9.718h2.96V7.48h6.431V5.34h-6.43V3.623h6.859zm11.145 0h-9.82v9.717h2.96V7.482h6.431V5.34h-6.431V3.623h6.86z" fill="currentColor, black"></path>
        <path fill="currentColor, black" d="M110.352 6a5.5 5.5 0 0 1-5.5 5.5H85.426a5.5 5.5 0 1 1 0-11h19.426a5.5 5.5 0 0 1 5.5 5.5z"></path>
        <path d="M84.724 3.074v6.203h1.895V7.609h2c.47 0 .927-.013 1.372-.157.862-.273 1.502-1.042 1.502-2.084 0-1.043-.627-1.798-1.476-2.098-.47-.17-.915-.196-1.399-.196Zm1.895 1.499h1.725c.366 0 .575.039.745.104.3.117.444.391.444.678 0 .312-.17.612-.496.716-.157.052-.34.078-.693.078h-1.725z" fill="var(--secondary-color, white)"></path>
        <path d="m96.614 8.378.366.899h2.13l-2.548-6.203h-2.77l-2.549 6.203h2.143l.353-.9h2.875Zm-1.503-3.87h.144l.902 2.501H94.21l.901-2.501Z" fill="var(--secondary-color, white)"></path>
        <path d="m103.723 3.074-1.542 2.828h-.066l-1.555-2.828h-2.208l2.809 4.548v1.655h1.961V7.479l2.666-4.405h-2.065Z" fill="var(--secondary-color, white)"></path>
    </g>
</svg>