<?xml version="1.0" encoding="UTF-8"?>
<svg data-bbox="0 0.5 110.351 11" xmlns="http://www.w3.org/2000/svg" viewBox="0 0 111 12" height="12" width="111" data-type="ugc">
    <g>
        <path fill="currentColor" d="M7.268 10.87V3.747h4.205V1.153H0v2.593h4.206v7.124h3.062Zm8.493-9.717H12.7v9.717h3.062V1.153Zm2.241 0v9.718h2.818V5.5l5.246 5.37h2.614V1.152h-2.818V6.48l-5.124-5.328h-2.736Zm16.696 6.043 3.532 3.675h3.94l-4.92-5.063 4.736-4.655h-3.715l-3.573 3.655h-.816V1.153h-2.96v9.717h2.96V7.197h.816ZM48.261.887c-3.98 0-6.37 2.246-6.37 5.146 0 2.898 2.39 5.144 6.37 5.144 3.96 0 6.35-2.246 6.35-5.144 0-2.9-2.39-5.146-6.35-5.146Zm0 7.922c-1.98 0-3.246-1.185-3.246-2.776 0-1.593 1.266-2.757 3.246-2.757 1.96 0 3.246 1.164 3.246 2.757 0 1.591-1.286 2.776-3.246 2.776Zm17.576-7.656h-9.82v9.717h2.96V7.482h6.431V5.34h-6.43V3.623h6.859v-2.47Zm11.145 0h-9.82v9.718h2.96V7.48h6.431V5.34h-6.431V3.623h6.86v-2.47Z"/>
        <path fill="currentColor" d="M110.351 6a5.5 5.5 0 0 1-5.5 5.5H85.426a5.5 5.5 0 1 1 0-11h19.425a5.5 5.5 0 0 1 5.5 5.5z"/>
        <path fill="var(--secondary-color)" d="M84.724 3.074v6.203h1.895V7.609h2c.47 0 .927-.013 1.371-.157.863-.273 1.503-1.042 1.503-2.084 0-1.043-.627-1.798-1.476-2.098-.47-.17-.915-.196-1.399-.196h-3.894Zm1.895 1.499h1.725c.366 0 .575.039.745.104.3.117.444.391.444.678 0 .312-.17.612-.496.716-.157.052-.34.078-.693.078h-1.725V4.573Z"/>
        <path fill="var(--secondary-color)" d="m96.614 8.378.366.899h2.13l-2.548-6.203h-2.77l-2.549 6.203h2.143l.353-.9h2.875Zm-1.503-3.87h.144l.902 2.501H94.21l.901-2.501Z"/>
        <path fill="var(--secondary-color)" d="m103.723 3.074-1.542 2.828h-.066l-1.555-2.828h-2.208l2.809 4.548v1.655h1.961V7.479l2.666-4.405h-2.065Z"/>
    </g>
</svg>
